# xmcd CD database file
#
# Track frame offsets:
#	182
#	12032
#	29207
#	42257
#	63482
#	87632
#	122507
#	139307
#	155732
#	178157
#	197657
#	221882
#	242807
#
# Disc length: 3519 seconds
#
# Revision: 4
# Processed by: cddbd v1.4PL0 Copyright (c) Steve Scherf et al.
# Submitted via: CDex 1.50
#
DISCID=c60dbd0d
DTITLE=Uakti - Trilobyte
DYEAR=1996
DGENRE=
TTITLE0=Raca (Race)
TTITLE1=Lagrima Do Sul (Teardrop from the South)
TTITLE2=Xentimento Mu Puli (My Little Bird in Foreign Lands)
TTITLE3=The Secret of 17 Nuts
TTITLE4=Arrumasao (Straightening Up)
TTITLE5=Music to an Ancient Greek Temple
TTITLE6=Trilobita II
TTITLE7=Krishna I - Holy Affirming
TTITLE8=Krishna II - Holy Denying
TTITLE9=Krishna III - Holy Reconciling
TTITLE10=Parque das Emas (Park of the Emas)
TTITLE11=Haxi
TTITLE12=Onze (Eleven)
EXTD=YEAR: 1996
EXTT0=
EXTT1=
EXTT2=
EXTT3=
EXTT4=
EXTT5=
EXTT6=
EXTT7=
EXTT8=
EXTT9=
EXTT10=
EXTT11=
EXTT12=
PLAYORDER=
